<svg width="21" height="16" viewBox="0 0 21 16" fill="none" xmlns="http://www.w3.org/2000/svg">
<g clip-path="url(#clip0_422_5491)">
<path d="M15.5845 12.8633C15.6938 13 15.7759 13.1641 15.7759 13.3281C15.7759 13.5195 15.6938 13.6836 15.5845 13.793L14.8188 14.5586C14.6821 14.6953 14.5181 14.75 14.354 14.75C14.1626 14.75 13.9985 14.6953 13.8892 14.5586L11.1548 11.8242C11.0181 11.7148 10.9634 11.5508 10.9634 11.3594V10.9219C9.92432 11.7422 8.77588 12.125 7.46338 12.125C6.42432 12.125 5.46729 11.8789 4.59229 11.3594C3.71729 10.8672 3.03369 10.1836 2.5415 9.30859C2.02197 8.43359 1.77588 7.47656 1.77588 6.4375C1.77588 5.39844 2.02197 4.46875 2.5415 3.59375C3.03369 2.71875 3.71729 2.03516 4.59229 1.51562C5.46729 1.02344 6.42432 0.75 7.46338 0.75C8.50244 0.75 9.43213 1.02344 10.3071 1.51562C11.1821 2.03516 11.8657 2.71875 12.3853 3.59375C12.8774 4.46875 13.1509 5.39844 13.1509 6.4375C13.1509 7.75 12.7407 8.92578 11.9478 9.9375H12.3853C12.5493 9.9375 12.7134 10.0195 12.8501 10.1289L15.5845 12.8633ZM7.46338 9.9375C8.09229 9.9375 8.6665 9.80078 9.21338 9.47266C9.76025 9.17188 10.1704 8.76172 10.4985 8.21484C10.7993 7.66797 10.9634 7.09375 10.9634 6.4375C10.9634 5.80859 10.7993 5.23438 10.4985 4.6875C10.1704 4.14062 9.76025 3.73047 9.21338 3.40234C8.6665 3.10156 8.09229 2.9375 7.46338 2.9375C6.80713 2.9375 6.23291 3.10156 5.68604 3.40234C5.13916 3.73047 4.729 4.14062 4.42822 4.6875C4.1001 5.23438 3.96338 5.80859 3.96338 6.4375C3.96338 7.09375 4.1001 7.66797 4.42822 8.21484C4.729 8.76172 5.13916 9.17188 5.68604 9.47266C6.23291 9.80078 6.80713 9.9375 7.46338 9.9375Z" fill="white"/>
</g>
<defs>
<clipPath id="clip0_422_5491">
<rect width="20" height="16" fill="white" transform="translate(0.775879)"/>
</clipPath>
</defs>
</svg>
